<?xml version="1.0" encoding="utf-8"?>
<!-- Generator: Adobe Illustrator 24.1.3, SVG Export Plug-In . SVG Version: 6.00 Build 0)  -->
<svg version="1.1" xmlns="http://www.w3.org/2000/svg" xmlns:xlink="http://www.w3.org/1999/xlink" x="0px" y="0px"
	 viewBox="0 0 100 100" style="enable-background:new 0 0 100 100;" xml:space="preserve">
<style type="text/css">
	.st0{fill:#3F3D56;}
	.st1{fill:#045FCB;}
	.st2{fill:#2F2E41;}
	.st3{fill:#8985A8;}
	.st4{opacity:0.1;enable-background:new    ;}
	.st5{fill:#F2F2F2;}
	.st6{fill:#FFB8B8;}
</style>
<g id="Vrstva_1">
	<g>
		<rect x="4.9" y="19.4" class="st0" width="88.1" height="47.4"/>
		<rect x="20.8" y="26.1" class="st1" width="0.8" height="1.2"/>
		<rect x="23.4" y="25.8" class="st1" width="0.8" height="1.2"/>
		<rect x="24.8" y="25.8" class="st1" width="0.8" height="1.2"/>
		<rect x="24.8" y="29.5" class="st1" width="0.8" height="1.2"/>
		<rect x="26.4" y="27.7" class="st1" width="0.8" height="1.2"/>
		<rect x="26.4" y="29.7" class="st1" width="0.8" height="1.2"/>
		<rect x="24.8" y="33.6" class="st1" width="0.8" height="1.2"/>
		<rect x="26.4" y="35.6" class="st1" width="0.8" height="1.2"/>
		<rect x="24.8" y="43.2" class="st1" width="0.8" height="1.2"/>
		<rect x="23.4" y="35.6" class="st1" width="0.8" height="1.2"/>
		<rect x="20.8" y="28.1" class="st1" width="0.8" height="1.2"/>
		<rect x="20.8" y="47.6" class="st1" width="0.8" height="1.2"/>
		<rect x="20.8" y="51.6" class="st1" width="0.8" height="1.2"/>
		<rect x="20.8" y="53.6" class="st1" width="0.8" height="1.2"/>
		<rect x="20.5" y="30.3" class="st1" width="1.1" height="0.2"/>
		<rect x="24.7" y="32.2" class="st1" width="1.1" height="0.2"/>
		<rect x="20.5" y="40.3" class="st1" width="1.1" height="0.2"/>
		<rect x="20.5" y="42" class="st1" width="1.1" height="0.2"/>
		<rect x="24.7" y="51.9" class="st1" width="1.1" height="0.2"/>
		<rect x="23.4" y="55.6" class="st1" width="1.1" height="0.2"/>
		<polygon class="st1" points="20.8,31.7 20.8,32 21.1,32 21.1,32.6 20.8,32.6 20.8,33 21.6,33 21.6,31.7 		"/>
		<polygon class="st1" points="23.4,29.5 23.4,29.8 23.7,29.8 23.7,30.5 23.4,30.5 23.4,30.8 24.2,30.8 24.2,29.5 		"/>
		<polygon class="st1" points="26.4,31.6 26.4,31.9 26.7,31.9 26.7,32.5 26.4,32.5 26.4,32.8 27.1,32.8 27.1,31.6 		"/>
		<polygon class="st1" points="26.4,37.6 26.4,37.9 26.7,37.9 26.7,38.5 26.4,38.5 26.4,38.9 27.1,38.9 27.1,37.6 		"/>
		<polygon class="st1" points="26.4,39.6 26.4,39.9 26.7,39.9 26.7,40.6 26.4,40.6 26.4,40.9 27.1,40.9 27.1,39.6 		"/>
		<polygon class="st1" points="26.4,33.4 26.4,33.7 26.7,33.7 26.7,34.4 26.4,34.4 26.4,34.7 27.1,34.7 27.1,33.4 		"/>
		<polygon class="st1" points="24.8,27.7 24.8,28 25.1,28 25.1,28.6 24.8,28.6 24.8,28.9 25.6,28.9 25.6,27.7 		"/>
		<rect x="24.8" y="37.6" class="st1" width="0.8" height="1.2"/>
		<rect x="24.8" y="41.3" class="st1" width="0.8" height="1.2"/>
		<polygon class="st1" points="24.8,39.5 24.8,39.8 25.1,39.8 25.1,40.4 24.8,40.4 24.8,40.7 25.6,40.7 25.6,39.5 		"/>
		<polygon class="st1" points="23.4,31.6 23.4,31.9 23.7,31.9 23.7,32.5 23.4,32.5 23.4,32.8 24.2,32.8 24.2,31.6 		"/>
		<polygon class="st1" points="23.4,33.6 23.4,33.9 23.7,33.9 23.7,34.5 23.4,34.5 23.4,34.8 24.2,34.8 24.2,33.6 		"/>
		<rect x="23.4" y="39.6" class="st1" width="0.8" height="1.2"/>
		<polygon class="st1" points="23.4,37.6 23.4,37.9 23.7,37.9 23.7,38.5 23.4,38.5 23.4,38.9 24.2,38.9 24.2,37.6 		"/>
		<rect x="23.4" y="43.7" class="st1" width="0.8" height="1.2"/>
		<polygon class="st1" points="23.4,41.7 23.4,42 23.7,42 23.7,42.6 23.4,42.6 23.4,42.9 24.2,42.9 24.2,41.7 		"/>
		<rect x="23.4" y="47.7" class="st1" width="0.8" height="1.2"/>
		<rect x="24.8" y="47.4" class="st1" width="0.8" height="1.2"/>
		<polygon class="st1" points="23.4,45.7 23.4,46 23.7,46 23.7,46.6 23.4,46.6 23.4,46.9 24.2,46.9 24.2,45.7 		"/>
		<polygon class="st1" points="26.4,45.7 26.4,46 26.7,46 26.7,46.6 26.4,46.6 26.4,46.9 27.1,46.9 27.1,45.7 		"/>
		<rect x="34.3" y="27.7" class="st1" width="0.8" height="1.2"/>
		<rect x="34.3" y="29.7" class="st1" width="0.8" height="1.2"/>
		<rect x="34.3" y="35.6" class="st1" width="0.8" height="1.2"/>
		<polygon class="st1" points="34.3,31.6 34.3,31.9 34.6,31.9 34.6,32.5 34.3,32.5 34.3,32.8 35.1,32.8 35.1,31.6 		"/>
		<polygon class="st1" points="34.3,37.6 34.3,37.9 34.6,37.9 34.6,38.5 34.3,38.5 34.3,38.9 35.1,38.9 35.1,37.6 		"/>
		<polygon class="st1" points="34.3,39.6 34.3,39.9 34.6,39.9 34.6,40.6 34.3,40.6 34.3,40.9 35.1,40.9 35.1,39.6 		"/>
		<polygon class="st1" points="34.3,33.4 34.3,33.7 34.6,33.7 34.6,34.4 34.3,34.4 34.3,34.7 35.1,34.7 35.1,33.4 		"/>
		<polygon class="st1" points="34.3,45.7 34.3,46 34.6,46 34.6,46.6 34.3,46.6 34.3,46.9 35.1,46.9 35.1,45.7 		"/>
		<rect x="23.4" y="51.7" class="st1" width="0.8" height="1.2"/>
		<rect x="24.8" y="49.4" class="st1" width="0.8" height="1.2"/>
		<rect x="23.4" y="57" class="st1" width="0.8" height="1.2"/>
		<rect x="24.8" y="53.3" class="st1" width="0.8" height="1.2"/>
		<polygon class="st1" points="23.4,49.7 23.4,50 23.7,50 23.7,50.7 23.4,50.7 23.4,51 24.2,51 24.2,49.7 		"/>
		<polygon class="st1" points="23.4,59.2 23.4,59.5 23.7,59.5 23.7,60.1 23.4,60.1 23.4,60.4 24.2,60.4 24.2,59.2 		"/>
		<rect x="32" y="25.8" class="st1" width="0.8" height="1.2"/>
		<rect x="32" y="35.6" class="st1" width="0.8" height="1.2"/>
		<rect x="32" y="55.6" class="st1" width="1.1" height="0.2"/>
		<polygon class="st1" points="32,29.5 32,29.8 32.3,29.8 32.3,30.5 32,30.5 32,30.8 32.7,30.8 32.7,29.5 		"/>
		<polygon class="st1" points="32,31.6 32,31.9 32.3,31.9 32.3,32.5 32,32.5 32,32.8 32.7,32.8 32.7,31.6 		"/>
		<polygon class="st1" points="32,33.6 32,33.9 32.3,33.9 32.3,34.5 32,34.5 32,34.8 32.7,34.8 32.7,33.6 		"/>
		<rect x="32" y="39.6" class="st1" width="0.8" height="1.2"/>
		<polygon class="st1" points="32,37.6 32,37.9 32.3,37.9 32.3,38.5 32,38.5 32,38.9 32.7,38.9 32.7,37.6 		"/>
		<rect x="32" y="43.7" class="st1" width="0.8" height="1.2"/>
		<polygon class="st1" points="32,41.7 32,42 32.3,42 32.3,42.6 32,42.6 32,42.9 32.7,42.9 32.7,41.7 		"/>
		<rect x="32" y="47.7" class="st1" width="0.8" height="1.2"/>
		<polygon class="st1" points="32,45.7 32,46 32.3,46 32.3,46.6 32,46.6 32,46.9 32.7,46.9 32.7,45.7 		"/>
		<rect x="32" y="51.7" class="st1" width="0.8" height="1.2"/>
		<rect x="32" y="57" class="st1" width="0.8" height="1.2"/>
		<polygon class="st1" points="32,49.7 32,50 32.3,50 32.3,50.7 32,50.7 32,51 32.7,51 32.7,49.7 		"/>
		<polygon class="st1" points="32,59.2 32,59.5 32.3,59.5 32.3,60.1 32,60.1 32,60.4 32.7,60.4 32.7,59.2 		"/>
		<rect x="35.7" y="25.8" class="st1" width="0.8" height="1.2"/>
		<rect x="35.7" y="35.6" class="st1" width="0.8" height="1.2"/>
		<rect x="35.7" y="55.6" class="st1" width="1.1" height="0.2"/>
		<polygon class="st1" points="35.7,29.5 35.7,29.8 36,29.8 36,30.5 35.7,30.5 35.7,30.8 36.5,30.8 36.5,29.5 		"/>
		<polygon class="st1" points="35.7,31.6 35.7,31.9 36,31.9 36,32.5 35.7,32.5 35.7,32.8 36.5,32.8 36.5,31.6 		"/>
		<polygon class="st1" points="35.7,33.6 35.7,33.9 36,33.9 36,34.5 35.7,34.5 35.7,34.8 36.5,34.8 36.5,33.6 		"/>
		<rect x="35.7" y="39.6" class="st1" width="0.8" height="1.2"/>
		<polygon class="st1" points="35.7,37.6 35.7,37.9 36,37.9 36,38.5 35.7,38.5 35.7,38.9 36.5,38.9 36.5,37.6 		"/>
		<rect x="35.7" y="43.7" class="st1" width="0.8" height="1.2"/>
		<polygon class="st1" points="35.7,41.7 35.7,42 36,42 36,42.6 35.7,42.6 35.7,42.9 36.5,42.9 36.5,41.7 		"/>
		<rect x="35.7" y="47.7" class="st1" width="0.8" height="1.2"/>
		<polygon class="st1" points="35.7,45.7 35.7,46 36,46 36,46.6 35.7,46.6 35.7,46.9 36.5,46.9 36.5,45.7 		"/>
		<rect x="35.7" y="51.7" class="st1" width="0.8" height="1.2"/>
		<rect x="35.7" y="57" class="st1" width="0.8" height="1.2"/>
		<polygon class="st1" points="35.7,49.7 35.7,50 36,50 36,50.7 35.7,50.7 35.7,51 36.5,51 36.5,49.7 		"/>
		<polygon class="st1" points="35.7,59.2 35.7,59.5 36,59.5 36,60.1 35.7,60.1 35.7,60.4 36.5,60.4 36.5,59.2 		"/>
		<polygon class="st1" points="24.8,57 24.8,57.3 25.1,57.3 25.1,58 24.8,58 24.8,58.3 25.6,58.3 25.6,57 		"/>
		<polygon class="st1" points="24.8,59 24.8,59.4 25.1,59.4 25.1,60 24.8,60 24.8,60.3 25.6,60.3 25.6,59 		"/>
		<polygon class="st1" points="20.8,35.6 20.8,35.9 21.1,35.9 21.1,36.5 20.8,36.5 20.8,36.8 21.6,36.8 21.6,35.6 		"/>
		<polygon class="st1" points="20.8,43.5 20.8,43.8 21.1,43.8 21.1,44.4 20.8,44.4 20.8,44.8 21.6,44.8 21.6,43.5 		"/>
		<polygon class="st1" points="20.8,45.5 20.8,45.8 21.1,45.8 21.1,46.5 20.8,46.5 20.8,46.8 21.6,46.8 21.6,45.5 		"/>
		<polygon class="st1" points="20.8,49.6 20.8,49.9 21.1,49.9 21.1,50.5 20.8,50.5 20.8,50.8 21.6,50.8 21.6,49.6 		"/>
		<polygon class="st1" points="20.8,55.3 20.8,55.6 21.1,55.6 21.1,56.3 20.8,56.3 20.8,56.6 21.6,56.6 21.6,55.3 		"/>
		<polygon class="st1" points="20.8,57 20.8,57.3 21.1,57.3 21.1,58 20.8,58 20.8,58.3 21.6,58.3 21.6,57 		"/>
		<rect x="28.9" y="26.1" class="st1" width="0.8" height="1.2"/>
		<rect x="28.9" y="28.1" class="st1" width="0.8" height="1.2"/>
		<rect x="28.5" y="30.3" class="st1" width="1.1" height="0.2"/>
		<rect x="28.5" y="40.3" class="st1" width="1.1" height="0.2"/>
		<rect x="28.5" y="42" class="st1" width="1.1" height="0.2"/>
		<polygon class="st1" points="28.9,31.7 28.9,32 29.2,32 29.2,32.6 28.9,32.6 28.9,33 29.6,33 29.6,31.7 		"/>
		<polygon class="st1" points="28.9,35.6 28.9,35.9 29.2,35.9 29.2,36.5 28.9,36.5 28.9,36.8 29.6,36.8 29.6,35.6 		"/>
		<polygon class="st1" points="28.9,43.5 28.9,43.8 29.2,43.8 29.2,44.4 28.9,44.4 28.9,44.8 29.6,44.8 29.6,43.5 		"/>
		<rect x="37.7" y="39.6" class="st1" width="0.8" height="1.2"/>
		<rect x="37.7" y="41.7" class="st1" width="0.8" height="1.2"/>
		<rect x="37.4" y="43.8" class="st1" width="1.1" height="0.2"/>
		<rect x="37.4" y="53.8" class="st1" width="1.1" height="0.2"/>
		<rect x="37.4" y="55.5" class="st1" width="1.1" height="0.2"/>
		<polygon class="st1" points="37.7,45.2 37.7,45.5 38,45.5 38,46.2 37.7,46.2 37.7,46.5 38.5,46.5 38.5,45.2 		"/>
		<polygon class="st1" points="37.7,49.1 37.7,49.4 38,49.4 38,50 37.7,50 37.7,50.4 38.5,50.4 38.5,49.1 		"/>
		<polygon class="st1" points="37.7,57 37.7,57.3 38,57.3 38,58 37.7,58 37.7,58.3 38.5,58.3 38.5,57 		"/>
		<rect x="40.2" y="26.1" class="st1" width="0.8" height="1.2"/>
		<rect x="42.8" y="25.8" class="st1" width="0.8" height="1.2"/>
		<rect x="44.2" y="25.8" class="st1" width="0.8" height="1.2"/>
		<rect x="44.2" y="29.5" class="st1" width="0.8" height="1.2"/>
		<rect x="45.8" y="27.7" class="st1" width="0.8" height="1.2"/>
		<rect x="45.8" y="29.7" class="st1" width="0.8" height="1.2"/>
		<rect x="44.2" y="33.6" class="st1" width="0.8" height="1.2"/>
		<rect x="45.8" y="35.6" class="st1" width="0.8" height="1.2"/>
		<rect x="44.2" y="43.2" class="st1" width="0.8" height="1.2"/>
		<rect x="42.8" y="35.6" class="st1" width="0.8" height="1.2"/>
		<rect x="40.2" y="28.1" class="st1" width="0.8" height="1.2"/>
		<rect x="40.2" y="47.6" class="st1" width="0.8" height="1.2"/>
		<rect x="40.2" y="51.6" class="st1" width="0.8" height="1.2"/>
		<rect x="40.2" y="53.6" class="st1" width="0.8" height="1.2"/>
		<rect x="39.9" y="30.3" class="st1" width="1.1" height="0.2"/>
		<rect x="44.1" y="32.2" class="st1" width="1.1" height="0.2"/>
		<rect x="39.9" y="40.3" class="st1" width="1.1" height="0.2"/>
		<rect x="39.9" y="42" class="st1" width="1.1" height="0.2"/>
		<rect x="44.1" y="51.9" class="st1" width="1.1" height="0.2"/>
		<rect x="42.8" y="55.6" class="st1" width="1.1" height="0.2"/>
		<polygon class="st1" points="40.2,31.7 40.2,32 40.5,32 40.5,32.6 40.2,32.6 40.2,33 41,33 41,31.7 		"/>
		<polygon class="st1" points="42.8,29.5 42.8,29.8 43.1,29.8 43.1,30.5 42.8,30.5 42.8,30.8 43.6,30.8 43.6,29.5 		"/>
		<polygon class="st1" points="45.8,31.6 45.8,31.9 46.1,31.9 46.1,32.5 45.8,32.5 45.8,32.8 46.6,32.8 46.6,31.6 		"/>
		<polygon class="st1" points="45.8,37.6 45.8,37.9 46.1,37.9 46.1,38.5 45.8,38.5 45.8,38.9 46.6,38.9 46.6,37.6 		"/>
		<polygon class="st1" points="45.8,39.6 45.8,39.9 46.1,39.9 46.1,40.6 45.8,40.6 45.8,40.9 46.6,40.9 46.6,39.6 		"/>
		<polygon class="st1" points="45.8,33.4 45.8,33.7 46.1,33.7 46.1,34.4 45.8,34.4 45.8,34.7 46.6,34.7 46.6,33.4 		"/>
		<polygon class="st1" points="44.2,27.7 44.2,28 44.5,28 44.5,28.6 44.2,28.6 44.2,28.9 45,28.9 45,27.7 		"/>
		<rect x="44.2" y="37.6" class="st1" width="0.8" height="1.2"/>
		<rect x="44.2" y="41.3" class="st1" width="0.8" height="1.2"/>
		<polygon class="st1" points="44.2,39.5 44.2,39.8 44.5,39.8 44.5,40.4 44.2,40.4 44.2,40.7 45,40.7 45,39.5 		"/>
		<polygon class="st1" points="42.8,31.6 42.8,31.9 43.1,31.9 43.1,32.5 42.8,32.5 42.8,32.8 43.6,32.8 43.6,31.6 		"/>
		<polygon class="st1" points="42.8,33.6 42.8,33.9 43.1,33.9 43.1,34.5 42.8,34.5 42.8,34.8 43.6,34.8 43.6,33.6 		"/>
		<rect x="42.8" y="39.6" class="st1" width="0.8" height="1.2"/>
		<polygon class="st1" points="42.8,37.6 42.8,37.9 43.1,37.9 43.1,38.5 42.8,38.5 42.8,38.9 43.6,38.9 43.6,37.6 		"/>
		<rect x="42.8" y="43.7" class="st1" width="0.8" height="1.2"/>
		<polygon class="st1" points="42.8,41.7 42.8,42 43.1,42 43.1,42.6 42.8,42.6 42.8,42.9 43.6,42.9 43.6,41.7 		"/>
		<rect x="42.8" y="47.7" class="st1" width="0.8" height="1.2"/>
		<rect x="44.2" y="47.4" class="st1" width="0.8" height="1.2"/>
		<polygon class="st1" points="42.8,45.7 42.8,46 43.1,46 43.1,46.6 42.8,46.6 42.8,46.9 43.6,46.9 43.6,45.7 		"/>
		<polygon class="st1" points="45.8,45.7 45.8,46 46.1,46 46.1,46.6 45.8,46.6 45.8,46.9 46.6,46.9 46.6,45.7 		"/>
		<rect x="53.7" y="27.7" class="st1" width="0.8" height="1.2"/>
		<rect x="53.7" y="29.7" class="st1" width="0.8" height="1.2"/>
		<rect x="53.7" y="35.6" class="st1" width="0.8" height="1.2"/>
		<polygon class="st1" points="53.7,31.6 53.7,31.9 54,31.9 54,32.5 53.7,32.5 53.7,32.8 54.5,32.8 54.5,31.6 		"/>
		<polygon class="st1" points="53.7,37.6 53.7,37.9 54,37.9 54,38.5 53.7,38.5 53.7,38.9 54.5,38.9 54.5,37.6 		"/>
		<polygon class="st1" points="53.7,39.6 53.7,39.9 54,39.9 54,40.6 53.7,40.6 53.7,40.9 54.5,40.9 54.5,39.6 		"/>
		<polygon class="st1" points="53.7,33.4 53.7,33.7 54,33.7 54,34.4 53.7,34.4 53.7,34.7 54.5,34.7 54.5,33.4 		"/>
		<polygon class="st1" points="53.7,45.7 53.7,46 54,46 54,46.6 53.7,46.6 53.7,46.9 54.5,46.9 54.5,45.7 		"/>
		<rect x="42.8" y="51.7" class="st1" width="0.8" height="1.2"/>
		<rect x="44.2" y="49.4" class="st1" width="0.8" height="1.2"/>
		<rect x="42.8" y="57" class="st1" width="0.8" height="1.2"/>
		<rect x="44.2" y="53.3" class="st1" width="0.8" height="1.2"/>
		<polygon class="st1" points="42.8,49.7 42.8,50 43.1,50 43.1,50.7 42.8,50.7 42.8,51 43.6,51 43.6,49.7 		"/>
		<polygon class="st1" points="42.8,59.2 42.8,59.5 43.1,59.5 43.1,60.1 42.8,60.1 42.8,60.4 43.6,60.4 43.6,59.2 		"/>
		<rect x="51.4" y="25.8" class="st1" width="0.8" height="1.2"/>
		<rect x="51.4" y="35.6" class="st1" width="0.8" height="1.2"/>
		<rect x="51.4" y="55.6" class="st1" width="1.1" height="0.2"/>
		<polygon class="st1" points="51.4,29.5 51.4,29.8 51.7,29.8 51.7,30.5 51.4,30.5 51.4,30.8 52.2,30.8 52.2,29.5 		"/>
		<polygon class="st1" points="51.4,31.6 51.4,31.9 51.7,31.9 51.7,32.5 51.4,32.5 51.4,32.8 52.2,32.8 52.2,31.6 		"/>
		<polygon class="st1" points="51.4,33.6 51.4,33.9 51.7,33.9 51.7,34.5 51.4,34.5 51.4,34.8 52.2,34.8 52.2,33.6 		"/>
		<rect x="51.4" y="39.6" class="st1" width="0.8" height="1.2"/>
		<polygon class="st1" points="51.4,37.6 51.4,37.9 51.7,37.9 51.7,38.5 51.4,38.5 51.4,38.9 52.2,38.9 52.2,37.6 		"/>
		<rect x="51.4" y="43.7" class="st1" width="0.8" height="1.2"/>
		<polygon class="st1" points="51.4,41.7 51.4,42 51.7,42 51.7,42.6 51.4,42.6 51.4,42.9 52.2,42.9 52.2,41.7 		"/>
		<rect x="51.4" y="47.7" class="st1" width="0.8" height="1.2"/>
		<polygon class="st1" points="51.4,45.7 51.4,46 51.7,46 51.7,46.6 51.4,46.6 51.4,46.9 52.2,46.9 52.2,45.7 		"/>
		<rect x="51.4" y="51.7" class="st1" width="0.8" height="1.2"/>
		<rect x="51.4" y="57" class="st1" width="0.8" height="1.2"/>
		<polygon class="st1" points="51.4,49.7 51.4,50 51.7,50 51.7,50.7 51.4,50.7 51.4,51 52.2,51 52.2,49.7 		"/>
		<polygon class="st1" points="51.4,59.2 51.4,59.5 51.7,59.5 51.7,60.1 51.4,60.1 51.4,60.4 52.2,60.4 52.2,59.2 		"/>
		<rect x="55.1" y="25.8" class="st1" width="0.8" height="1.2"/>
		<rect x="55.1" y="35.6" class="st1" width="0.8" height="1.2"/>
		<rect x="55.1" y="55.6" class="st1" width="1.1" height="0.2"/>
		<polygon class="st1" points="55.1,29.5 55.1,29.8 55.4,29.8 55.4,30.5 55.1,30.5 55.1,30.8 55.9,30.8 55.9,29.5 		"/>
		<polygon class="st1" points="55.1,31.6 55.1,31.9 55.4,31.9 55.4,32.5 55.1,32.5 55.1,32.8 55.9,32.8 55.9,31.6 		"/>
		<polygon class="st1" points="55.1,33.6 55.1,33.9 55.4,33.9 55.4,34.5 55.1,34.5 55.1,34.8 55.9,34.8 55.9,33.6 		"/>
		<rect x="55.1" y="39.6" class="st1" width="0.8" height="1.2"/>
		<polygon class="st1" points="55.1,37.6 55.1,37.9 55.4,37.9 55.4,38.5 55.1,38.5 55.1,38.9 55.9,38.9 55.9,37.6 		"/>
		<rect x="55.1" y="43.7" class="st1" width="0.8" height="1.2"/>
		<polygon class="st1" points="55.1,41.7 55.1,42 55.4,42 55.4,42.6 55.1,42.6 55.1,42.9 55.9,42.9 55.9,41.7 		"/>
		<rect x="55.1" y="47.7" class="st1" width="0.8" height="1.2"/>
		<polygon class="st1" points="55.1,45.7 55.1,46 55.4,46 55.4,46.6 55.1,46.6 55.1,46.9 55.9,46.9 55.9,45.7 		"/>
		<rect x="55.1" y="51.7" class="st1" width="0.8" height="1.2"/>
		<rect x="55.1" y="57" class="st1" width="0.8" height="1.2"/>
		<polygon class="st1" points="55.1,49.7 55.1,50 55.4,50 55.4,50.7 55.1,50.7 55.1,51 55.9,51 55.9,49.7 		"/>
		<polygon class="st1" points="55.1,59.2 55.1,59.5 55.4,59.5 55.4,60.1 55.1,60.1 55.1,60.4 55.9,60.4 55.9,59.2 		"/>
		<polygon class="st1" points="44.2,57 44.2,57.3 44.5,57.3 44.5,58 44.2,58 44.2,58.3 45,58.3 45,57 		"/>
		<polygon class="st1" points="44.2,59 44.2,59.4 44.5,59.4 44.5,60 44.2,60 44.2,60.3 45,60.3 45,59 		"/>
		<polygon class="st1" points="40.2,35.6 40.2,35.9 40.5,35.9 40.5,36.5 40.2,36.5 40.2,36.8 41,36.8 41,35.6 		"/>
		<polygon class="st1" points="40.2,43.5 40.2,43.8 40.5,43.8 40.5,44.4 40.2,44.4 40.2,44.8 41,44.8 41,43.5 		"/>
		<polygon class="st1" points="40.2,45.5 40.2,45.8 40.5,45.8 40.5,46.5 40.2,46.5 40.2,46.8 41,46.8 41,45.5 		"/>
		<polygon class="st1" points="40.2,49.6 40.2,49.9 40.5,49.9 40.5,50.5 40.2,50.5 40.2,50.8 41,50.8 41,49.6 		"/>
		<polygon class="st1" points="40.2,55.3 40.2,55.6 40.5,55.6 40.5,56.3 40.2,56.3 40.2,56.6 41,56.6 41,55.3 		"/>
		<polygon class="st1" points="40.2,57 40.2,57.3 40.5,57.3 40.5,58 40.2,58 40.2,58.3 41,58.3 41,57 		"/>
		<rect x="48.3" y="26.1" class="st1" width="0.8" height="1.2"/>
		<rect x="48.3" y="28.1" class="st1" width="0.8" height="1.2"/>
		<rect x="48" y="30.3" class="st1" width="1.1" height="0.2"/>
		<rect x="48" y="40.3" class="st1" width="1.1" height="0.2"/>
		<rect x="48" y="42" class="st1" width="1.1" height="0.2"/>
		<polygon class="st1" points="48.3,31.7 48.3,32 48.6,32 48.6,32.6 48.3,32.6 48.3,33 49,33 49,31.7 		"/>
		<polygon class="st1" points="48.3,35.6 48.3,35.9 48.6,35.9 48.6,36.5 48.3,36.5 48.3,36.8 49,36.8 49,35.6 		"/>
		<polygon class="st1" points="48.3,43.5 48.3,43.8 48.6,43.8 48.6,44.4 48.3,44.4 48.3,44.8 49,44.8 49,43.5 		"/>
		<rect x="57.1" y="39.6" class="st1" width="0.8" height="1.2"/>
		<rect x="57.1" y="41.7" class="st1" width="0.8" height="1.2"/>
		<rect x="56.8" y="43.8" class="st1" width="1.1" height="0.2"/>
		<rect x="56.8" y="53.8" class="st1" width="1.1" height="0.2"/>
		<rect x="56.8" y="55.5" class="st1" width="1.1" height="0.2"/>
		<polygon class="st1" points="57.1,45.2 57.1,45.5 57.4,45.5 57.4,46.2 57.1,46.2 57.1,46.5 57.9,46.5 57.9,45.2 		"/>
		<polygon class="st1" points="57.1,49.1 57.1,49.4 57.4,49.4 57.4,50 57.1,50 57.1,50.4 57.9,50.4 57.9,49.1 		"/>
		<polygon class="st1" points="57.1,57 57.1,57.3 57.4,57.3 57.4,58 57.1,58 57.1,58.3 57.9,58.3 57.9,57 		"/>
		<rect x="59.6" y="26.1" class="st1" width="0.8" height="1.2"/>
		<rect x="62.3" y="25.8" class="st1" width="0.8" height="1.2"/>
		<rect x="63.7" y="25.8" class="st1" width="0.8" height="1.2"/>
		<rect x="63.7" y="29.5" class="st1" width="0.8" height="1.2"/>
		<rect x="65.2" y="27.7" class="st1" width="0.8" height="1.2"/>
		<rect x="65.2" y="29.7" class="st1" width="0.8" height="1.2"/>
		<rect x="63.7" y="33.6" class="st1" width="0.8" height="1.2"/>
		<rect x="65.2" y="35.6" class="st1" width="0.8" height="1.2"/>
		<rect x="63.7" y="43.2" class="st1" width="0.8" height="1.2"/>
		<rect x="62.3" y="35.6" class="st1" width="0.8" height="1.2"/>
		<rect x="59.6" y="28.1" class="st1" width="0.8" height="1.2"/>
		<rect x="59.6" y="47.6" class="st1" width="0.8" height="1.2"/>
		<rect x="59.6" y="51.6" class="st1" width="0.8" height="1.2"/>
		<rect x="59.6" y="53.6" class="st1" width="0.8" height="1.2"/>
		<rect x="59.3" y="30.3" class="st1" width="1.1" height="0.2"/>
		<rect x="63.5" y="32.2" class="st1" width="1.1" height="0.2"/>
		<rect x="59.3" y="40.3" class="st1" width="1.1" height="0.2"/>
		<rect x="59.3" y="42" class="st1" width="1.1" height="0.2"/>
		<rect x="63.5" y="51.9" class="st1" width="1.1" height="0.2"/>
		<rect x="62.3" y="55.6" class="st1" width="1.1" height="0.2"/>
		<polygon class="st1" points="59.6,31.7 59.6,32 59.9,32 59.9,32.6 59.6,32.6 59.6,33 60.4,33 60.4,31.7 		"/>
		<polygon class="st1" points="62.3,29.5 62.3,29.8 62.6,29.8 62.6,30.5 62.3,30.5 62.3,30.8 63,30.8 63,29.5 		"/>
		<polygon class="st1" points="65.2,31.6 65.2,31.9 65.5,31.9 65.5,32.5 65.2,32.5 65.2,32.8 66,32.8 66,31.6 		"/>
		<polygon class="st1" points="65.2,37.6 65.2,37.9 65.5,37.9 65.5,38.5 65.2,38.5 65.2,38.9 66,38.9 66,37.6 		"/>
		<polygon class="st1" points="65.2,39.6 65.2,39.9 65.5,39.9 65.5,40.6 65.2,40.6 65.2,40.9 66,40.9 66,39.6 		"/>
		<polygon class="st1" points="65.2,33.4 65.2,33.7 65.5,33.7 65.5,34.4 65.2,34.4 65.2,34.7 66,34.7 66,33.4 		"/>
		<polygon class="st1" points="63.7,27.7 63.7,28 64,28 64,28.6 63.7,28.6 63.7,28.9 64.4,28.9 64.4,27.7 		"/>
		<rect x="63.7" y="37.6" class="st1" width="0.8" height="1.2"/>
		<rect x="63.7" y="41.3" class="st1" width="0.8" height="1.2"/>
		<polygon class="st1" points="63.7,39.5 63.7,39.8 64,39.8 64,40.4 63.7,40.4 63.7,40.7 64.4,40.7 64.4,39.5 		"/>
		<polygon class="st1" points="62.3,31.6 62.3,31.9 62.6,31.9 62.6,32.5 62.3,32.5 62.3,32.8 63,32.8 63,31.6 		"/>
		<polygon class="st1" points="62.3,33.6 62.3,33.9 62.6,33.9 62.6,34.5 62.3,34.5 62.3,34.8 63,34.8 63,33.6 		"/>
		<rect x="62.3" y="39.6" class="st1" width="0.8" height="1.2"/>
		<polygon class="st1" points="62.3,37.6 62.3,37.9 62.6,37.9 62.6,38.5 62.3,38.5 62.3,38.9 63,38.9 63,37.6 		"/>
		<rect x="62.3" y="43.7" class="st1" width="0.8" height="1.2"/>
		<polygon class="st1" points="62.3,41.7 62.3,42 62.6,42 62.6,42.6 62.3,42.6 62.3,42.9 63,42.9 63,41.7 		"/>
		<rect x="62.3" y="47.7" class="st1" width="0.8" height="1.2"/>
		<rect x="63.7" y="47.4" class="st1" width="0.8" height="1.2"/>
		<polygon class="st1" points="62.3,45.7 62.3,46 62.6,46 62.6,46.6 62.3,46.6 62.3,46.9 63,46.9 63,45.7 		"/>
		<polygon class="st1" points="65.2,45.7 65.2,46 65.5,46 65.5,46.6 65.2,46.6 65.2,46.9 66,46.9 66,45.7 		"/>
		<rect x="73.1" y="27.7" class="st1" width="0.8" height="1.2"/>
		<rect x="73.1" y="29.7" class="st1" width="0.8" height="1.2"/>
		<rect x="73.1" y="35.6" class="st1" width="0.8" height="1.2"/>
		<polygon class="st1" points="73.1,31.6 73.1,31.9 73.4,31.9 73.4,32.5 73.1,32.5 73.1,32.8 73.9,32.8 73.9,31.6 		"/>
		<polygon class="st1" points="73.1,37.6 73.1,37.9 73.4,37.9 73.4,38.5 73.1,38.5 73.1,38.9 73.9,38.9 73.9,37.6 		"/>
		<polygon class="st1" points="73.1,39.6 73.1,39.9 73.4,39.9 73.4,40.6 73.1,40.6 73.1,40.9 73.9,40.9 73.9,39.6 		"/>
		<polygon class="st1" points="73.1,33.4 73.1,33.7 73.4,33.7 73.4,34.4 73.1,34.4 73.1,34.7 73.9,34.7 73.9,33.4 		"/>
		<polygon class="st1" points="73.1,45.7 73.1,46 73.4,46 73.4,46.6 73.1,46.6 73.1,46.9 73.9,46.9 73.9,45.7 		"/>
		<rect x="62.3" y="51.7" class="st1" width="0.8" height="1.2"/>
		<rect x="63.7" y="49.4" class="st1" width="0.8" height="1.2"/>
		<rect x="62.3" y="57" class="st1" width="0.8" height="1.2"/>
		<rect x="63.7" y="53.3" class="st1" width="0.8" height="1.2"/>
		<polygon class="st1" points="62.3,49.7 62.3,50 62.6,50 62.6,50.7 62.3,50.7 62.3,51 63,51 63,49.7 		"/>
		<polygon class="st1" points="62.3,59.2 62.3,59.5 62.6,59.5 62.6,60.1 62.3,60.1 62.3,60.4 63,60.4 63,59.2 		"/>
		<rect x="70.8" y="25.8" class="st1" width="0.8" height="1.2"/>
		<rect x="70.8" y="35.6" class="st1" width="0.8" height="1.2"/>
		<rect x="70.8" y="55.6" class="st1" width="1.1" height="0.2"/>
		<polygon class="st1" points="70.8,29.5 70.8,29.8 71.1,29.8 71.1,30.5 70.8,30.5 70.8,30.8 71.6,30.8 71.6,29.5 		"/>
		<polygon class="st1" points="70.8,31.6 70.8,31.9 71.1,31.9 71.1,32.5 70.8,32.5 70.8,32.8 71.6,32.8 71.6,31.6 		"/>
		<polygon class="st1" points="70.8,33.6 70.8,33.9 71.1,33.9 71.1,34.5 70.8,34.5 70.8,34.8 71.6,34.8 71.6,33.6 		"/>
		<rect x="70.8" y="39.6" class="st1" width="0.8" height="1.2"/>
		<polygon class="st1" points="70.8,37.6 70.8,37.9 71.1,37.9 71.1,38.5 70.8,38.5 70.8,38.9 71.6,38.9 71.6,37.6 		"/>
		<rect x="70.8" y="43.7" class="st1" width="0.8" height="1.2"/>
		<polygon class="st1" points="70.8,41.7 70.8,42 71.1,42 71.1,42.6 70.8,42.6 70.8,42.9 71.6,42.9 71.6,41.7 		"/>
		<rect x="70.8" y="47.7" class="st1" width="0.8" height="1.2"/>
		<polygon class="st1" points="70.8,45.7 70.8,46 71.1,46 71.1,46.6 70.8,46.6 70.8,46.9 71.6,46.9 71.6,45.7 		"/>
		<rect x="70.8" y="51.7" class="st1" width="0.8" height="1.2"/>
		<rect x="70.8" y="57" class="st1" width="0.8" height="1.2"/>
		<polygon class="st1" points="70.8,49.7 70.8,50 71.1,50 71.1,50.7 70.8,50.7 70.8,51 71.6,51 71.6,49.7 		"/>
		<polygon class="st1" points="70.8,59.2 70.8,59.5 71.1,59.5 71.1,60.1 70.8,60.1 70.8,60.4 71.6,60.4 71.6,59.2 		"/>
		<rect x="74.5" y="25.8" class="st1" width="0.8" height="1.2"/>
		<rect x="74.5" y="35.6" class="st1" width="0.8" height="1.2"/>
		<rect x="74.5" y="55.6" class="st1" width="1.1" height="0.2"/>
		<polygon class="st1" points="74.5,29.5 74.5,29.8 74.8,29.8 74.8,30.5 74.5,30.5 74.5,30.8 75.3,30.8 75.3,29.5 		"/>
		<polygon class="st1" points="74.5,31.6 74.5,31.9 74.8,31.9 74.8,32.5 74.5,32.5 74.5,32.8 75.3,32.8 75.3,31.6 		"/>
		<polygon class="st1" points="74.5,33.6 74.5,33.9 74.8,33.9 74.8,34.5 74.5,34.5 74.5,34.8 75.3,34.8 75.3,33.6 		"/>
		<rect x="74.5" y="39.6" class="st1" width="0.8" height="1.2"/>
		<polygon class="st1" points="74.5,37.6 74.5,37.9 74.8,37.9 74.8,38.5 74.5,38.5 74.5,38.9 75.3,38.9 75.3,37.6 		"/>
		<rect x="74.5" y="43.7" class="st1" width="0.8" height="1.2"/>
		<polygon class="st1" points="74.5,41.7 74.5,42 74.8,42 74.8,42.6 74.5,42.6 74.5,42.9 75.3,42.9 75.3,41.7 		"/>
		<rect x="74.5" y="47.7" class="st1" width="0.8" height="1.2"/>
		<polygon class="st1" points="74.5,45.7 74.5,46 74.8,46 74.8,46.6 74.5,46.6 74.5,46.9 75.3,46.9 75.3,45.7 		"/>
		<rect x="74.5" y="51.7" class="st1" width="0.8" height="1.2"/>
		<rect x="74.5" y="57" class="st1" width="0.8" height="1.2"/>
		<polygon class="st1" points="74.5,49.7 74.5,50 74.8,50 74.8,50.7 74.5,50.7 74.5,51 75.3,51 75.3,49.7 		"/>
		<polygon class="st1" points="74.5,59.2 74.5,59.5 74.8,59.5 74.8,60.1 74.5,60.1 74.5,60.4 75.3,60.4 75.3,59.2 		"/>
		<polygon class="st1" points="63.7,57 63.7,57.3 64,57.3 64,58 63.7,58 63.7,58.3 64.4,58.3 64.4,57 		"/>
		<polygon class="st1" points="63.7,59 63.7,59.4 64,59.4 64,60 63.7,60 63.7,60.3 64.4,60.3 64.4,59 		"/>
		<polygon class="st1" points="59.6,35.6 59.6,35.9 59.9,35.9 59.9,36.5 59.6,36.5 59.6,36.8 60.4,36.8 60.4,35.6 		"/>
		<polygon class="st1" points="59.6,43.5 59.6,43.8 59.9,43.8 59.9,44.4 59.6,44.4 59.6,44.8 60.4,44.8 60.4,43.5 		"/>
		<polygon class="st1" points="59.6,45.5 59.6,45.8 59.9,45.8 59.9,46.5 59.6,46.5 59.6,46.8 60.4,46.8 60.4,45.5 		"/>
		<polygon class="st1" points="59.6,49.6 59.6,49.9 59.9,49.9 59.9,50.5 59.6,50.5 59.6,50.8 60.4,50.8 60.4,49.6 		"/>
		<polygon class="st1" points="59.6,55.3 59.6,55.6 59.9,55.6 59.9,56.3 59.6,56.3 59.6,56.6 60.4,56.6 60.4,55.3 		"/>
		<polygon class="st1" points="59.6,57 59.6,57.3 59.9,57.3 59.9,58 59.6,58 59.6,58.3 60.4,58.3 60.4,57 		"/>
		<rect x="67.7" y="26.1" class="st1" width="0.8" height="1.2"/>
		<rect x="67.7" y="28.1" class="st1" width="0.8" height="1.2"/>
		<rect x="67.4" y="30.3" class="st1" width="1.1" height="0.2"/>
		<rect x="67.4" y="40.3" class="st1" width="1.1" height="0.2"/>
		<rect x="67.4" y="42" class="st1" width="1.1" height="0.2"/>
		<polygon class="st1" points="67.7,31.7 67.7,32 68,32 68,32.6 67.7,32.6 67.7,33 68.5,33 68.5,31.7 		"/>
		<polygon class="st1" points="67.7,35.6 67.7,35.9 68,35.9 68,36.5 67.7,36.5 67.7,36.8 68.5,36.8 68.5,35.6 		"/>
		<polygon class="st1" points="67.7,43.5 67.7,43.8 68,43.8 68,44.4 67.7,44.4 67.7,44.8 68.5,44.8 68.5,43.5 		"/>
		<rect x="76.5" y="39.6" class="st1" width="0.8" height="1.2"/>
		<rect x="76.5" y="41.7" class="st1" width="0.8" height="1.2"/>
		<rect x="76.2" y="43.8" class="st1" width="1.1" height="0.2"/>
		<rect x="76.2" y="53.8" class="st1" width="1.1" height="0.2"/>
		<rect x="76.2" y="55.5" class="st1" width="1.1" height="0.2"/>
		<polygon class="st1" points="76.5,45.2 76.5,45.5 76.9,45.5 76.9,46.2 76.5,46.2 76.5,46.5 77.3,46.5 77.3,45.2 		"/>
		<polygon class="st1" points="76.5,49.1 76.5,49.4 76.9,49.4 76.9,50 76.5,50 76.5,50.4 77.3,50.4 77.3,49.1 		"/>
		<polygon class="st1" points="76.5,57 76.5,57.3 76.9,57.3 76.9,58 76.5,58 76.5,58.3 77.3,58.3 77.3,57 		"/>
		<rect x="26.4" y="90.6" class="st2" width="83.3" height="0.3"/>
		<path class="st2" d="M43.7,60.1v5.2l0.7,3.2c0,0-0.1,2,0,2.6c0.1,0.6-0.1,1.6-0.7,1.6c-0.6,0-0.9,1.5-0.9,1.5S42.6,74.9,42,75
			s-0.5,0-0.5,0l-0.4,1l-8.4,5.5l1.6,4c0,0,2.5-0.9,2.7-1.2c0.2-0.3,1.9,0.4,1.9-0.3s0.3-2.5,0.9-2.6c0.6-0.1,5.6-2.4,5.6-2.4
			s2.6-2.9,2.8-4c0.2-1.1,1.1-4.2,1.1-4.2L52,75v8.5L51.6,88l4.4-0.6c0,0-0.4-2.8,0-3.2s1-5.2,0.6-5.8c-0.4-0.6,0.2-3.3,0-3.7
			c-0.2-0.4-0.1-3.3-0.6-4.1c-0.5-0.8-3.5-9.1-3.5-9.1L43.7,60.1z"/>
		<path class="st2" d="M52.2,87.8c0,0-1.5,2.5-0.5,2.8s2.9,0,3.1,0s3.8,0.1,3.8,0.1s2.4-0.5,2.4-1.2s-1.5-0.7-2-0.8
			c-0.5-0.1-3.6-1.3-3.6-1.3L52.2,87.8z"/>
		<path class="st2" d="M33.3,81.7c0,0-2.9-0.4-2.8,0.7c0.1,1,1.2,2.7,1.2,2.9c0.1,0.1,0.7,1.7,1.1,2.7c0.3,0.7,0.7,1.4,1.3,2
			c0.4,0.4,0.8,0.7,1.1,0.6c0.6-0.3,0-1.7-0.1-2.2s-0.2-3.8-0.2-3.8L33.3,81.7z"/>
		<path class="st3" d="M53.5,43.5l3.2-7.4c0,0-0.3-0.7-1-0.6c0,0-1-2.5-2.8-2.5c0,0-2.7-1.5-3.5,0c0,0-1.7,1.5-1.6,2.9
			s0.2,2.4,0.2,2.4s-1.6,0.2-1.3,1c0.3,0.8,0.4,0.8,0,1.1l-0.4,0.3c0,0-8.4,7.5-3.7,18.6L43,61v1.6c0,0,10.2,0.1,10.2,0
			s-0.2-0.7,0.2-1.1s0.4-1,0.4-1s-0.4-2-0.2-2.6c0.2-0.6,0.3-3.2-0.1-3.8c-0.4-0.6-0.2-5.4-0.2-5.4l0.9-1.7l-0.3-1l-0.3-1L53.5,43.5
			z"/>
		<path class="st4" d="M52.6,63.7c0,0-1.2-3.3-1.1-3.9c0.1-0.6-0.2-1.8-0.2-1.8l-0.4-8.2c0,0,1.7-7.2-2.1-8.5c0,0-1,0.4-1.8,1.8
			c-0.8,0.3-1.7,1.2-2,3.5c-0.4,3.9,1.4,14,2.3,15.7s1.5,2.9,1.5,2.9l0.9-0.4c0,0.1,0.1,0.1,0.1,0.1L52.6,63.7z"/>
		<circle class="st5" cx="53.2" cy="42.3" r="0.3"/>
		<rect x="53.1" y="42.3" class="st0" width="0.2" height="4.7"/>
		<path class="st6" d="M49.5,64l0.8,1.7c0,0,1.8-0.6,1.8-0.9s-0.8-1.6-0.8-1.6L49.5,64z"/>
		<path class="st3" d="M48.4,41.3c0,0-2.3,1-2.7,4.9c-0.4,3.9,1.4,14,2.3,15.7c0.9,1.7,1.5,2.9,1.5,2.9l2.7-1.2c0,0-1.2-3.3-1.1-3.9
			c0.1-0.6-0.2-1.8-0.2-1.8l-0.4-8.2C50.5,49.8,52.2,42.5,48.4,41.3z"/>
	</g>
</g>
<g id="Vrstva_3">
</g>
</svg>
