<?xml version="1.0" encoding="utf-8"?>
<!-- Generator: Adobe Illustrator 24.1.3, SVG Export Plug-In . SVG Version: 6.00 Build 0)  -->
<svg version="1.1" xmlns="http://www.w3.org/2000/svg" xmlns:xlink="http://www.w3.org/1999/xlink" x="0px" y="0px"
	 viewBox="0 0 100 100" style="enable-background:new 0 0 100 100;" xml:space="preserve">
<style type="text/css">
	.st0{fill:#F2F2F2;}
	.st1{fill:#3F3D56;}
	.st2{opacity:0.1;enable-background:new    ;}
	.st3{fill:#045FCB;}
	.st4{fill:#2F2E41;}
	.st5{fill:#FBBEBE;}
</style>
<g id="Vrstva_1">
	<g>
		<path class="st0" d="M53,80.7C30.8,79,4.3,61.8,5.6,44s27-34.3,49.3-32.6s35,34.9,33.7,52.6S75.3,82.4,53,80.7z"/>
		<ellipse class="st1" cx="51.5" cy="80.7" rx="43" ry="2.8"/>
		<ellipse class="st2" cx="54.9" cy="80.6" rx="39.5" ry="1.9"/>
		<rect x="21" y="26.2" class="st1" width="69" height="54.1"/>
		<path class="st0" d="M54.7,33.6h-17c-0.1,0-0.2-0.1-0.2-0.2s0.1-0.2,0.2-0.2c0,0,0,0,0,0h17c0.1,0,0.2,0.1,0.2,0.2
			C55,33.5,54.9,33.6,54.7,33.6z"/>
		<path class="st0" d="M73.4,35.9H46.6c-0.1,0-0.2-0.1-0.2-0.2c0-0.1,0.1-0.2,0.2-0.2l0,0h26.8c0.1,0,0.2,0.1,0.2,0.2
			C73.6,35.8,73.5,35.9,73.4,35.9z"/>
		<path class="st0" d="M54.8,38.1h-17c-0.1,0-0.2-0.1-0.2-0.2s0.1-0.2,0.2-0.2h17c0.1,0,0.2,0.1,0.2,0.2S54.9,38.1,54.8,38.1z"/>
		<path class="st0" d="M73.4,38.2h-17c-0.1,0-0.2-0.1-0.2-0.2s0.1-0.2,0.2-0.2h17c0.1,0,0.2,0.1,0.2,0.2S73.5,38.2,73.4,38.2z"/>
		<path class="st0" d="M54.9,40.4h-17c-0.1,0-0.2-0.1-0.2-0.2s0.1-0.2,0.2-0.2h17c0.1,0,0.2,0.1,0.2,0.2S55,40.4,54.9,40.4z"/>
		<path class="st0" d="M54.9,42.7h-17c-0.1,0-0.2-0.1-0.2-0.2s0.1-0.2,0.2-0.2h17c0.1,0,0.2,0.1,0.2,0.2S55,42.7,54.9,42.7z"/>
		<path class="st0" d="M62.6,33.6h-4.9c-0.1,0-0.2-0.1-0.2-0.2c0-0.1,0.1-0.2,0.2-0.2l0,0h4.9c0.1,0,0.2,0.1,0.2,0.2
			C62.8,33.5,62.8,33.6,62.6,33.6z"/>
		<path class="st0" d="M62.6,40.4h-4.9c-0.1,0-0.2-0.1-0.2-0.2s0.1-0.2,0.2-0.2l0,0h4.9c0.1,0,0.2,0.1,0.2,0.2S62.8,40.4,62.6,40.4z
			"/>
		<path class="st0" d="M62.6,42.6h-4.9c-0.1,0-0.2-0.1-0.2-0.2c0-0.1,0.1-0.2,0.2-0.2c0,0,0,0,0,0h4.9c0.1,0,0.2,0.1,0.2,0.2
			C62.8,42.5,62.8,42.6,62.6,42.6C62.6,42.6,62.6,42.6,62.6,42.6z"/>
		<path class="st0" d="M70.8,42.6h-4.9c-0.1,0-0.2-0.1-0.2-0.2c0-0.1,0.1-0.2,0.2-0.2h4.9c0.1,0,0.2,0.1,0.2,0.2
			C71,42.5,70.9,42.6,70.8,42.6C70.8,42.6,70.8,42.6,70.8,42.6z"/>
		<path class="st0" d="M42.6,35.9h-4.9c-0.1,0-0.2-0.1-0.2-0.2c0-0.1,0.1-0.2,0.2-0.2l0,0h4.9c0.1,0,0.2,0.1,0.2,0.2
			C42.8,35.8,42.7,35.9,42.6,35.9z"/>
		<path class="st0" d="M54.8,67.1h-17c-0.1,0-0.2-0.1-0.2-0.2c0-0.1,0.1-0.2,0.2-0.2l0,0h17c0.1,0,0.2,0.1,0.2,0.2
			C55,67,54.9,67.1,54.8,67.1z"/>
		<path class="st0" d="M54.7,71.6h-17c-0.1,0-0.2-0.1-0.2-0.2c0-0.1,0.1-0.2,0.2-0.2l0,0h17c0.1,0,0.2,0.1,0.2,0.2
			C54.9,71.5,54.8,71.6,54.7,71.6z"/>
		<path class="st0" d="M54.7,73.9h-17c-0.1,0-0.2-0.1-0.2-0.2s0.1-0.2,0.2-0.2l0,0h17c0.1,0,0.2,0.1,0.2,0.2S54.8,73.9,54.7,73.9z"
			/>
		<path class="st0" d="M62,71.6h-4.9c-0.1,0-0.2-0.1-0.2-0.2s0.1-0.2,0.2-0.2H62c0.1,0,0.2,0.1,0.2,0.2S62.1,71.6,62,71.6L62,71.6z"
			/>
		<path class="st0" d="M62,73.9h-4.9c-0.1,0-0.2-0.1-0.2-0.2s0.1-0.2,0.2-0.2H62c0.1,0,0.2,0.1,0.2,0.2S62.1,73.9,62,73.9L62,73.9z"
			/>
		<path class="st0" d="M70.2,71.6h-4.9c-0.1,0-0.2-0.1-0.2-0.2s0.1-0.2,0.2-0.2h4.9c0.1,0,0.2,0.1,0.2,0.2S70.3,71.6,70.2,71.6z"/>
		<path class="st0" d="M73.4,69.3H46.6c-0.1,0-0.2-0.1-0.2-0.2c0-0.1,0.1-0.2,0.2-0.2h26.8c0.1,0,0.2,0.1,0.2,0.2
			C73.6,69.2,73.5,69.3,73.4,69.3z"/>
		<path class="st0" d="M42.6,69.3h-4.9c-0.1,0-0.2-0.1-0.2-0.2c0-0.1,0.1-0.2,0.2-0.2l0,0h4.9c0.1,0,0.2,0.1,0.2,0.2
			C42.8,69.2,42.7,69.3,42.6,69.3z"/>
		<path class="st0" d="M73.4,76.2H46.6c-0.1,0-0.2-0.1-0.2-0.2s0.1-0.2,0.2-0.2h26.8c0.1,0,0.2,0.1,0.2,0.2S73.5,76.2,73.4,76.2
			L73.4,76.2z"/>
		<path class="st0" d="M42.6,76.2h-4.9c-0.1,0-0.2-0.1-0.2-0.2s0.1-0.2,0.2-0.2l0,0h4.9c0.1,0,0.2,0.1,0.2,0.2S42.7,76.2,42.6,76.2z
			"/>
		<polygon class="st3" points="50.7,48.1 44,54.7 50.7,61.2 52.1,59.7 47.1,54.7 52.2,49.7 		"/>
		<polygon class="st3" points="60.4,48.1 67,54.7 60.4,61.2 58.9,59.7 63.9,54.7 58.9,49.7 		"/>
		<circle class="st3" cx="22.9" cy="27.6" r="0.8"/>
		<circle class="st3" cx="25.1" cy="27.6" r="0.8"/>
		<circle class="st3" cx="27.3" cy="27.6" r="0.8"/>
		<rect x="21" y="28.9" class="st2" width="69" height="0.3"/>
		<path class="st4" d="M14.3,80.2c-0.2,0.1-0.5,0.2-0.8,0.3c-0.5,0.1-1,0.1-1.4,0.2c-0.2,0-0.4,0.1-0.5,0.3c0,0.1,0,0.3,0.1,0.4
			c0.5,1.5,0.8,3.1,1.7,4.5c0.3,0.6,0.8,1.1,1.3,1.6c0.2,0.2,0.4,0.3,0.7,0.4c0.4,0,0.7-0.2,0.7-0.6c0-0.1,0-0.2-0.1-0.3
			c-0.1-0.2-0.2-0.3-0.3-0.5c-0.1-0.2-0.2-0.4-0.2-0.6c-0.1-0.7-0.2-1.3,0.1-2c0.2-0.4,0.4-0.8,0.7-1.1c0.2-0.4,0.4-0.8,0.4-1.2
			c0-0.3-0.2-0.6-0.3-0.8c-0.2-0.3-0.5-1-0.8-1C15.2,79.6,14.6,80.1,14.3,80.2z"/>
		<path class="st4" d="M22.8,85.5c0,0.1,0,0.3-0.1,0.4c-0.1,0.3-0.3,0.4-0.5,0.7c-0.2,0.3-0.1,0.7,0,1.1c0.1,0.2,0.2,0.5,0.4,0.6
			c0.2,0.1,0.4,0.2,0.5,0.2c1.7,0.2,3.3,0.1,5,0.1c0.3,0,0.6,0,0.9-0.1s0.4-0.5,0.2-0.8c-0.2-0.2-0.5-0.2-0.8-0.2
			c-0.7,0-1.4-0.3-1.9-0.8c-0.1-0.1-0.2-0.2-0.3-0.3c-0.1-0.1-0.1-0.2-0.1-0.3c-0.2-0.6-0.5-1.3-0.8-1.8c-0.1-0.2-0.2-0.3-0.4-0.4
			c-0.1-0.1-0.3-0.1-0.4-0.1c-0.4,0-1.5-0.2-1.8,0.2C22.5,84.2,22.8,85.1,22.8,85.5z"/>
		<circle class="st5" cx="25.3" cy="45.9" r="2.7"/>
		<path class="st5" d="M22.9,48.1c-0.2,0.4-0.4,0.8-0.8,1l3.7,0.7c-0.1-0.5-0.2-1.1-0.1-1.6c0-0.1,0-0.3,0-0.4
			c-0.1-0.3-0.4-0.4-0.6-0.5c-0.7-0.2-1.3-0.2-1.9-0.5C23,47.2,23.1,47.7,22.9,48.1z"/>
		<path class="st4" d="M22.1,48.1c0.8-0.4,1.7-0.3,2.5,0.1c0.5,0.2,0.9,0.6,1.2,1c0.4,0.3,0.7,0.7,0.8,1.2c0,0.2-0.1,0.5-0.1,0.7
			c-0.1,1,0.4,2,1.3,2.4c0.3,0.5,0.4,1.1,0.4,1.6c0,2.2-0.7,4.3-0.2,6.4c0.1,0.5,0.3,1,0.4,1.5c0.1,0.6,0.1,1.3,0.2,2
			c0.1,0.7,0.2,1.4,0.5,2.1c-0.2,0.3-0.5,0.4-0.8,0.3c-0.3,0-0.6-0.2-0.8-0.3c-1.3-0.7-2.5-1.5-3.8-2.1c-0.9-0.4-1.8-0.6-2.7-1
			c-0.9-0.4-1.7-1.1-1.9-2c-0.1-0.4-0.1-0.8-0.1-1.2c0-1.8-0.1-3.5,0.3-5.2c0.3-1.5,1-3,1.1-4.5c0-0.5,0-1,0.3-1.5
			C20.9,49,21.8,48.8,22.1,48.1z"/>
		<path class="st4" d="M23.8,45.9c0.2-0.2,0.5-0.2,0.7-0.2c0.3,0.1,0.5,0.2,0.7,0.2c0.1,0,0.2,0,0.3,0c0.1-0.1,0.1-0.2,0.1-0.3
			c0.1-0.5,0.1-1.1,0.1-1.6c0-0.1,0-0.2,0-0.2c0.1-0.2,0.3-0.2,0.4-0.2c0.5-0.2,0.9-0.7,0.8-1.3c0-0.1-0.1-0.3-0.2-0.3
			c-0.1-0.1-0.3-0.1-0.4-0.1c-0.7,0-1.4,0-2.1,0c-0.3,0-0.5,0-0.8,0.1c-0.2,0.1-0.3,0.3-0.4,0.4c-0.4,0.3-0.9,0.4-1.4,0.5
			c-0.2,0.1-0.4,0.2-0.6,0.4C21,43.5,20.9,43.8,21,44c0.1,0.1,0.1,0.2,0.2,0.3c0.3,0.5,0.1,1,0.1,1.6c0.1,0.7,1,1.8,1.7,1.9
			C24.1,48,23.5,46.4,23.8,45.9z"/>
		<path class="st4" d="M22.3,75.3c0.1,0.5,0.2,1,0.1,1.5c0,0.7-0.3,1.3-0.3,2c0,0.5,0,1,0,1.5c0,0.3-0.2,0.6-0.2,1
			c-0.2,1.1,0,2.2,0.6,3.1c0,0.1,0.1,0.1,0.2,0.2c0.1,0,0.2,0,0.2,0c0.8,0,1.5-0.1,2.3-0.2c0.1,0,0.1,0,0.1-0.1c0,0,0-0.1,0-0.1
			c0.1-0.7-0.2-1.5-0.3-2.2c-0.1-0.8,0.1-1.6,0.3-2.3c0.1-0.4,0.2-0.8,0.3-1.1c0.1-0.2,0.2-0.5,0.3-0.7c0.1-0.4,0.2-0.8,0.2-1.2
			c0.1-0.6,0.1-1.3,0.1-1.9c0-0.6,0-1.2-0.2-1.8c-0.2-0.8-0.5-1.5-0.9-2.2c-0.2,0-0.4,0.1-0.5,0.2c-0.5,0.3-0.9,0.6-1.4,0.8
			c-0.3,0.2-1,0.3-1.2,0.6c-0.2,0.3-0.1,0.9-0.1,1.3C22.2,74.1,22.2,74.7,22.3,75.3z"/>
		<path class="st2" d="M22.3,75.3c0.1,0.5,0.2,1,0.1,1.5c0,0.7-0.3,1.3-0.3,2c0,0.5,0,1,0,1.5c0,0.3-0.2,0.6-0.2,1
			c-0.2,1.1,0,2.2,0.6,3.1c0,0.1,0.1,0.1,0.2,0.2c0.1,0,0.2,0,0.2,0c0.8,0,1.5-0.1,2.3-0.2c0.1,0,0.1,0,0.1-0.1c0,0,0-0.1,0-0.1
			c0.1-0.7-0.2-1.5-0.3-2.2c-0.1-0.8,0.1-1.6,0.3-2.3c0.1-0.4,0.2-0.8,0.3-1.1c0.1-0.2,0.2-0.5,0.3-0.7c0.1-0.4,0.2-0.8,0.2-1.2
			c0.1-0.6,0.1-1.3,0.1-1.9c0-0.6,0-1.2-0.2-1.8c-0.2-0.8-0.5-1.5-0.9-2.2c-0.2,0-0.4,0.1-0.5,0.2c-0.5,0.3-0.9,0.6-1.4,0.8
			c-0.3,0.2-1,0.3-1.2,0.6c-0.2,0.3-0.1,0.9-0.1,1.3C22.2,74.1,22.2,74.7,22.3,75.3z"/>
		<path class="st4" d="M18.7,64.8c-0.4,1,0.2,2,0.6,2.9c1.1,2.2,1.9,4.6,2.6,7c0.1,0.2,0.1,0.4,0.1,0.5c-0.1,0.1-0.1,0.2-0.3,0.3
			c-0.5,0.4-1.2,0.5-1.8,0.8c-0.6,0.2-1.2,0.5-1.7,0.8c-0.5,0.3-0.9,0.6-1.3,0.9l-1.4,1c-0.1,0.1-0.2,0.1-0.2,0.2
			c-0.1,0.2-0.1,0.5,0,0.7c0.2,0.6,0.4,1.2,0.7,1.8c0,0.1,0.1,0.2,0.2,0.3c0.2,0.1,0.5,0,0.6-0.2c0.2-0.2,0.3-0.4,0.5-0.5
			c0.2-0.1,0.5,0,0.7,0c0.4-0.1,0.6-0.4,0.9-0.7c1.1-1.1,3-1,4.3-2c0.2-0.2,0.4-0.3,0.6-0.4c0.2-0.1,0.5-0.2,0.7-0.3
			c0.7-0.3,1.1-1,1.3-1.7s0.3-1.5,0.4-2.2c0.1-0.4,0.2-0.7,0.2-1.1c0-0.4,0-0.7,0-1.1L26,66.3c0-0.5-0.1-0.9-0.1-1.4
			c-1.3,0-2.7,0.1-4,0.1C20.8,65.1,19.7,65.2,18.7,64.8z"/>
		<path class="st4" d="M18.2,66.1c0.2,0.3,0.6,0.3,0.9,0.1s0.5-0.4,0.8-0.6c0.4-0.2,0.9-0.2,1.4-0.2c0.7,0,1.5,0,2.2,0.2
			c0.7,0.2,1.4,0.6,2.2,0.5c0.1,0,0.3-0.1,0.3-0.2c0-0.1,0.1-0.2,0.1-0.3l0-0.7c0-0.1,0-0.2-0.1-0.3c-0.1-0.1-0.1-0.2-0.2-0.2
			c-1.1-0.5-2.3-0.6-3.5-0.7c-0.6,0-1.2,0-1.8,0c-0.5,0-1.1-0.1-1.6,0.1C18.3,64.2,17.9,65.6,18.2,66.1z"/>
		<path class="st3" d="M24.9,48.9c-1.4,0-2.7-0.9-4.1-1c-0.2,0-0.3,0-0.5,0.1c-0.2,0.1-0.3,0.3-0.5,0.4c-0.4,0.4-1,0.7-1.4,1.1
			c-0.4,0.4-0.6,1-0.5,1.6c0.2,0.6,0.8,1,1.3,0.8c0.2-0.7,0.7-1.4,1.3-1.8c0.3-0.2,0.7-0.4,1-0.5c0.6-0.3,1.3-0.6,2-0.4
			c0.2,0.1,0.5,0.2,0.7,0.4l1.1,0.7C25.3,50,25.2,49.4,24.9,48.9z"/>
		<path class="st3" d="M19.2,51.6c-0.2,0.2,0.1,0.6,0,0.9c0,0.2-0.2,0.3-0.3,0.5c-0.1,0.2,0,0.4-0.1,0.6c0,0.1-0.1,0.3-0.1,0.4
			c-0.1,0.4-0.2,0.9-0.2,1.3l-0.2,1.8c0,0.3-0.1,0.6-0.1,0.8c0,0.2,0,0.4,0,0.6c-0.1,0.2-0.2,0.4-0.3,0.6c-0.1,0.2-0.1,0.4,0,0.6
			c-0.4,0.3-0.5,0.9-0.2,1.3c0,0.1,0.1,0.1,0.1,0.2c0,0.1,0,0.2,0,0.3l-0.2,0.7c-0.1,0.2-0.1,0.4,0.1,0.5c-0.1,0.2-0.3,0.3-0.3,0.5
			c-0.1,0.2,0,0.4,0.1,0.6c0.1,0.1,0.1,0.1,0.2,0.2c0,0.1,0,0.2,0,0.3c-0.1,0.3,0,0.6,0.1,0.9c0.2,0.3,0.5,0.4,0.8,0.3
			c0.5-0.1,0.9-0.3,1.4-0.2c1.1,0.2,2.2,0.4,3.2,0.7c1.2,0.4,2.3,0.9,3.6,1.1c0.1,0,0.2,0,0.2,0c0.1-0.1,0.1-0.1,0.1-0.2
			c0.1-0.6,0.3-1.2,0.4-1.8c0.2-0.7,0.3-1.3,0.4-2c0-0.4,0.1-0.9,0.1-1.3l0.1-3.5c0-0.5,0-1-0.2-1.5l-0.6-1.8c-0.3-1-1.1-2-1.3-3
			c-0.2-0.7-0.3-1.4-0.7-1.9c-0.6-0.7-1.8-0.9-2.7-0.7c-0.4,0.1-0.9,0.2-1.3,0.4c-0.4,0.3-0.8,0.7-1.1,1.1
			C19.7,51,19.4,51.2,19.2,51.6z"/>
		<path class="st5" d="M21.4,61.9c0.1,0.3,0.2,0.7,0.4,1c0.2,0.6,0.2,1.2,0.3,1.8c0.1,0.2,0.2,0.5,0.2,0.7c0.1,0.6-0.1,1.2-0.3,1.7
			c-0.2,0.5-0.5,1.1-0.6,1.6c-0.1,0.4,0,0.9,0.3,1.1c0.3,0.3,0.8,0.3,1.2,0.2c0.2,0,0.3,0,0.4-0.1c0.3-0.2,0.5-0.5,0.5-0.9
			c0.3-1.2,0.2-2.4,0.1-3.6L24,62.3c0-0.6-0.1-1.2-0.3-1.8c-0.1-0.2-0.2-0.6-0.4-0.8c-0.2-0.1-0.7-0.1-1-0.2
			C21.2,59.5,21.2,61.1,21.4,61.9z"/>
		<path class="st4" d="M22.7,50.3c-0.2-0.1-0.5-0.1-0.7,0.1c-0.2,0.1-0.4,0.3-0.5,0.5c-0.5,0.6-1,1.3-0.9,2.1c0,0.3,0.1,0.6,0.2,0.8
			c0.3,1.2,0,2.5,0,3.8c0,0.7,0.2,1.5,0.3,2.2c0,0.1,0.1,0.3,0.2,0.4c0.1,0,0.2,0,0.3-0.1c0.8-0.3,1.7-0.2,2.4,0.3
			c0.3-0.1,0.2-0.6,0.1-0.9c-0.2-0.9,0.1-1.8,0.4-2.6c0.3-0.8,0.6-1.7,0.7-2.6c0.1-1-0.3-2-0.6-2.9c-0.1-0.2-0.1-0.4-0.3-0.6
			c-0.1-0.1-0.3-0.2-0.5-0.2C23.3,50.5,23,50.4,22.7,50.3z"/>
	</g>
</g>
<g id="Vrstva_3">
</g>
</svg>
