<?xml version="1.0" encoding="utf-8"?>
<!-- Generator: Adobe Illustrator 24.1.3, SVG Export Plug-In . SVG Version: 6.00 Build 0)  -->
<svg version="1.1" xmlns="http://www.w3.org/2000/svg" xmlns:xlink="http://www.w3.org/1999/xlink" x="0px" y="0px"
	 viewBox="0 0 48 48" style="enable-background:new 0 0 48 48;" xml:space="preserve">
<style type="text/css">
	.st0{fill-rule:evenodd;clip-rule:evenodd;fill:none;stroke:#1D1D1B;stroke-miterlimit:10;}
	.st1{fill-rule:evenodd;clip-rule:evenodd;fill:#1D1D1B;}
</style>
<g id="Vrstva_1">
	<g>
		<g>
			<path class="st0" d="M27.5,36.8"/>
			<path class="st0" d="M11.1,32.3c0,0-0.2,1.6-0.1,2.4c0.1,2.3,0.7,4.4,2,6.3c1.5,2.2,3.5,3.6,5.9,4.4c1.1,0.4,2.3,0.6,3.4,0.8
				c1.2-0.3,2.3-0.5,3.4-0.8c2.4-0.8,4.5-2.3,5.9-4.4c1.3-1.9,1.8-4,2-6.3c0-0.8-0.1-2.3-0.1-2.4"/>
			<path class="st1" d="M16.9,36.8c0,0-0.1,0.1-0.1,0.1C16.9,36.9,16.9,36.9,16.9,36.8C16.9,36.8,16.9,36.8,16.9,36.8z"/>
			<path class="st1" d="M30.3,36c-0.3-0.2-0.4-0.5-0.8-0.8c-1.2-1.1-2.5-2.3-4.4-2.4c-1.3,0-2.7,2-2.8,1.9c-0.2,0-1.5-2-2.8-1.9
				c-1.9,0.1-3.2,1.2-4.4,2.4c-0.3,0.3-0.5,0.6-0.8,0.8c0,0-0.1,0-0.1,0c0.6,0.8,1.7,0.8,2.8,0.8c0.2-0.1,0.4-0.3,0.6-0.3
				c0.9-0.3,1.9-0.5,2.8-0.8c0.3-0.1,1.6-0.2,1.9-0.2c0.3,0,1.6,0.1,1.9,0.2c0.9,0.2,1.9,0.5,2.8,0.8"/>
			<path class="st1" d="M16.8,36.9c0,0,0.1-0.1,0.1-0.1c-1.1,0-2.2,0-2.8-0.8C14.7,36.8,15.7,36.9,16.8,36.9z"/>
			<path class="st1" d="M14.5,1.8"/>
			<path class="st1" d="M10.8,32.3c0,0,0.2-5.2-1.6-8.7c-1.8-3.5-3.2-6.2-2.6-10c1.1-6.7,3.4-7.8,4.5-9.7c0,0,3.6-1.8,7.9-2.2
				c1.6-0.2,8.8,0,12.7,2.7s5.9,5.2,6.2,8.7c0.3,3.5,0.2,6.9-1.6,10.3c-1.7,3.5-2.2,6.8-2.1,8.2c0.2,1.4-0.8,3.3-1,1.4
				c-0.1-1.3-0.9-4.9,0.2-8.3c1.1-3.4,0.8-5.7-1.8-7.5c-2.4-1.7-2.9-5.5-5.4-5.5c-2.5,0.1-7.1-3.6-9.8-1.5c-2.7,2.1-6.4,0.6-6.4,2.5
				c0,2-0.6,4.4-0.6,6c0,0,2.4,9.7,1.7,13.7C11.3,32.9,11,32,10.8,32.3z"/>
			<path class="st1" d="M19.3,38.5c0,0,4.1-0.7,5.1,0c1,0.7-0.6,6.5-1.4,7.3s-1.6,0.8-2.3,0.1C20,45.2,18.1,39.9,19.3,38.5z"/>
			<ellipse class="st1" cx="17.5" cy="24.6" rx="2.2" ry="1.2"/>
			<ellipse class="st1" cx="26.8" cy="24.6" rx="2.2" ry="1.2"/>
		</g>
		<path class="st1" d="M37.5,11.2c0,0-2.2,7.4,2.8,12.2c3.4,3.3-1.8,9.4-1.8,9.4l-5,1.9c0,0,1.8-19.4,1.9-20.6
			C35.5,12.8,37.5,11.2,37.5,11.2z"/>
	</g>
</g>
<g id="Vrstva_3">
</g>
</svg>
