<?xml version="1.0" encoding="utf-8"?>
<!-- Generator: Adobe Illustrator 24.1.3, SVG Export Plug-In . SVG Version: 6.00 Build 0)  -->
<svg version="1.1" id="Layer_1" xmlns="http://www.w3.org/2000/svg" xmlns:xlink="http://www.w3.org/1999/xlink" x="0px" y="0px"
	 viewBox="0 0 160.1 160.1" style="enable-background:new 0 0 160.1 160.1;" xml:space="preserve">
<style type="text/css">
	.st0{fill:url(#SVGID_1_);}
	.st1{fill:#FAFAFA;}
	.st2{fill:#E0E0E0;}
	.st3{fill:url(#SVGID_2_);}
	.st4{fill:#FFFFFF;}
	.st5{fill:#045FCB;}
</style>
<g id="Vrstva_1">
	<g>
		
			<linearGradient id="SVGID_1_" gradientUnits="userSpaceOnUse" x1="274.0029" y1="940.7072" x2="274.0029" y2="856.9094" gradientTransform="matrix(1 0 0 1 -165.5 -799.0196)">
			<stop  offset="1.000000e-02" style="stop-color:#808080;stop-opacity:0.25"/>
			<stop  offset="0.54" style="stop-color:#808080;stop-opacity:0.12"/>
			<stop  offset="1" style="stop-color:#808080;stop-opacity:0.1"/>
		</linearGradient>
		<path class="st0" d="M150.2,57.9H74.3c-7.4,0-13.6,6.1-13.6,13.6v47.1c0,3.6,2.7,6.5,6.3,6.5l0,0h48.1c1.6,5.5,5.7,13.2,15.8,16.6
			l-2.9-16.6h22c3.6,0,6.3-2.9,6.3-6.5l0,0V64.3C156.5,60.8,153.7,57.9,150.2,57.9L150.2,57.9z"/>
		<path class="st1" d="M148.9,59.5H75.2c-7.3,0-13.1,5.8-13.1,13.1V118c0,3.4,2.7,6.1,6.1,6.1h46.8c1.6,5.3,5.5,12.8,15.3,16
			l-2.7-16H149c3.4,0,6.1-2.7,6.1-6.1l0,0V65.6C155,62.2,152.3,59.5,148.9,59.5z"/>
		<rect x="91.7" y="71.3" class="st2" width="38.1" height="4.7"/>
		<rect x="115.3" y="80" class="st2" width="14.2" height="4.7"/>
		<rect x="101.2" y="88.9" class="st2" width="28.1" height="4.7"/>
		<rect x="94.6" y="97.6" class="st2" width="34.6" height="4.7"/>
		<rect x="110.8" y="106.3" class="st2" width="18.2" height="4.7"/>
		
			<linearGradient id="SVGID_2_" gradientUnits="userSpaceOnUse" x1="216.7619" y1="912.803" x2="216.7619" y2="829.1434" gradientTransform="matrix(1 0 0 1 -165.5 -799.0196)">
			<stop  offset="1.000000e-02" style="stop-color:#808080;stop-opacity:0.25"/>
			<stop  offset="0.54" style="stop-color:#808080;stop-opacity:0.12"/>
			<stop  offset="1" style="stop-color:#808080;stop-opacity:0.1"/>
		</linearGradient>
		<path class="st3" d="M10,30.1h82.5c3.6,0,6.3,2.9,6.3,6.5v54.3c0,3.6-2.7,6.5-6.3,6.5h-48c-1.6,5.5-5.7,13.2-15.7,16.6l2.9-16.6
			H10c-3.6,0-6.3-2.9-6.3-6.5V36.6C3.7,33,6.5,30.1,10,30.1z"/>
		<path class="st4" d="M11,31.7h80.6c3.4,0,6.1,2.7,6.1,6.1v52.3c0,3.4-2.7,6.1-6.1,6.1l0,0H44.7c-1.6,5.3-5.5,12.8-15.3,16l2.7-16
			H11c-3.4,0-6.1-2.7-6.1-6.1V37.9C4.8,34.5,7.6,31.7,11,31.7L11,31.7z"/>
		<rect x="32.1" y="41.9" class="st5" width="38.1" height="4.7"/>
		<rect x="32.5" y="50.6" class="st5" width="14.2" height="4.7"/>
		<rect x="32.6" y="59.3" class="st5" width="28.1" height="4.7"/>
		<rect x="32.9" y="68.2" class="st5" width="34.6" height="4.7"/>
		<rect x="33.1" y="76.9" class="st5" width="18.2" height="4.7"/>
	</g>
</g>
<g id="Vrstva_3">
</g>
</svg>
